<svg width="80" height="92" viewBox="0 0 80 92" fill="none" xmlns="http://www.w3.org/2000/svg">
<g id="healthicons:i-certificate-paper-outline">
<g id="Group">
<path id="Vector" d="M28.5707 20.9524C28.5707 20.4472 28.7714 19.9627 29.1286 19.6055C29.4858 19.2483 29.9703 19.0476 30.4755 19.0476H49.5231C50.0283 19.0476 50.5127 19.2483 50.87 19.6055C51.2272 19.9627 51.4279 20.4472 51.4279 20.9524C51.4279 21.4575 51.2272 21.942 50.87 22.2992C50.5127 22.6565 50.0283 22.8571 49.5231 22.8571H30.4755C29.9703 22.8571 29.4858 22.6565 29.1286 22.2992C28.7714 21.942 28.5707 21.4575 28.5707 20.9524ZM22.8564 30.4762C22.3512 30.4762 21.8668 30.6769 21.5096 31.0341C21.1523 31.3913 20.9517 31.8758 20.9517 32.3809C20.9517 32.8861 21.1523 33.3706 21.5096 33.7278C21.8668 34.085 22.3512 34.2857 22.8564 34.2857H57.1421C57.6473 34.2857 58.1318 34.085 58.489 33.7278C58.8462 33.3706 59.0469 32.8861 59.0469 32.3809C59.0469 31.8758 58.8462 31.3913 58.489 31.0341C58.1318 30.6769 57.6473 30.4762 57.1421 30.4762H22.8564ZM20.9517 40C20.9517 39.4948 21.1523 39.0103 21.5096 38.6531C21.8668 38.2959 22.3512 38.0952 22.8564 38.0952H57.1421C57.6473 38.0952 58.1318 38.2959 58.489 38.6531C58.8462 39.0103 59.0469 39.4948 59.0469 40C59.0469 40.5052 58.8462 40.9896 58.489 41.3469C58.1318 41.7041 57.6473 41.9048 57.1421 41.9048H22.8564C22.3512 41.9048 21.8668 41.7041 21.5096 41.3469C21.1523 40.9896 20.9517 40.5052 20.9517 40ZM22.8564 45.7143C22.3512 45.7143 21.8668 45.915 21.5096 46.2722C21.1523 46.6294 20.9517 47.1139 20.9517 47.619C20.9517 48.1242 21.1523 48.6087 21.5096 48.9659C21.8668 49.3231 22.3512 49.5238 22.8564 49.5238H57.1421C57.6473 49.5238 58.1318 49.3231 58.489 48.9659C58.8462 48.6087 59.0469 48.1242 59.0469 47.619C59.0469 47.1139 58.8462 46.6294 58.489 46.2722C58.1318 45.915 57.6473 45.7143 57.1421 45.7143H22.8564Z" fill="black"/>
<path id="Vector_2" fill-rule="evenodd" clip-rule="evenodd" d="M66.6663 68.5715C66.6663 70.5922 65.8636 72.5302 64.4348 73.959C63.0059 75.3878 61.068 76.1906 59.0473 76.1906H53.333V83.8096L47.6187 80.9525L41.9044 83.8096V76.1906H20.9521C18.9314 76.1906 16.9934 75.3878 15.5646 73.959C14.1357 72.5302 13.333 70.5922 13.333 68.5715V15.2382C13.333 13.2175 14.1357 11.2796 15.5646 9.85071C16.9934 8.42186 18.9314 7.61914 20.9521 7.61914H59.0473C61.068 7.61914 63.0059 8.42186 64.4348 9.85071C65.8636 11.2796 66.6663 13.2175 66.6663 15.2382V68.5715ZM20.9521 11.4287C19.9417 11.4287 18.9727 11.83 18.2583 12.5444C17.5439 13.2589 17.1425 14.2278 17.1425 15.2382V68.5715C17.1425 69.5819 17.5439 70.5508 18.2583 71.2653C18.9727 71.9797 19.9417 72.381 20.9521 72.381H41.9044V67.8972C40.9346 66.7975 40.3027 65.4413 40.0845 63.9914C39.8663 62.5415 40.0712 61.0594 40.6744 59.7229C41.2777 58.3865 42.2538 57.2526 43.4856 56.4572C44.7173 55.6618 46.1525 55.2387 47.6187 55.2387C49.085 55.2387 50.5201 55.6618 51.7519 56.4572C52.9836 57.2526 53.9597 58.3865 54.563 59.7229C55.1663 61.0594 55.3711 62.5415 55.153 63.9914C54.9348 65.4413 54.3029 66.7975 53.333 67.8972V72.381H59.0473C60.0576 72.381 61.0266 71.9797 61.741 71.2653C62.4555 70.5508 62.8568 69.5819 62.8568 68.5715V15.2382C62.8568 14.2278 62.4555 13.2589 61.741 12.5444C61.0266 11.83 60.0576 11.4287 59.0473 11.4287H20.9521ZM49.5235 70.2363C48.274 70.558 46.9634 70.558 45.714 70.2363V77.6458L47.6187 76.6934L49.5235 77.6458V70.2363ZM47.6187 66.6668C48.6291 66.6668 49.598 66.2654 50.3125 65.551C51.0269 64.8366 51.4282 63.8676 51.4282 62.8572C51.4282 61.8469 51.0269 60.8779 50.3125 60.1635C49.598 59.4491 48.6291 59.0477 47.6187 59.0477C46.6084 59.0477 45.6394 59.4491 44.925 60.1635C44.2106 60.8779 43.8092 61.8469 43.8092 62.8572C43.8092 63.8676 44.2106 64.8366 44.925 65.551C45.6394 66.2654 46.6084 66.6668 47.6187 66.6668Z" fill="black"/>
</g>
</g>
</svg>
