<svg width="80" height="80" viewBox="0 0 80 80" fill="none" xmlns="http://www.w3.org/2000/svg">
<g id="solar:cup-first-outline">
<g id="Group">
<path id="Vector" d="M42.623 19.3566C43.0799 19.5458 43.4704 19.8663 43.7451 20.2774C44.0198 20.6886 44.1664 21.172 44.1664 21.6665V34.9999C44.1664 35.6629 43.903 36.2988 43.4341 36.7676C42.9653 37.2365 42.3294 37.4999 41.6664 37.4999C41.0033 37.4999 40.3674 37.2365 39.8986 36.7676C39.4298 36.2988 39.1664 35.6629 39.1664 34.9999V27.6999L38.433 28.4332C38.2042 28.6788 37.9282 28.8758 37.6215 29.0125C37.3148 29.1491 36.9838 29.2226 36.6481 29.2285C36.3124 29.2344 35.979 29.1727 35.6677 29.047C35.3564 28.9212 35.0736 28.7341 34.8362 28.4967C34.5988 28.2593 34.4117 27.9765 34.286 27.6652C34.1602 27.3539 34.0985 27.0205 34.1044 26.6848C34.1103 26.3491 34.1838 26.0181 34.3204 25.7114C34.4571 25.4048 34.6541 25.1288 34.8997 24.8999L39.8997 19.8999C40.2491 19.5502 40.6943 19.312 41.179 19.2153C41.6637 19.1186 42.1662 19.1678 42.623 19.3566Z" fill="black"/>
<path id="Vector_2" fill-rule="evenodd" clip-rule="evenodd" d="M24.9932 5.35658C29.9536 4.54343 34.9732 4.14538 39.9998 4.16658C46.0932 4.16658 51.1298 4.70324 55.0065 5.35658L55.4565 5.43324C58.8232 5.99658 61.6232 6.46657 63.8098 9.15991C65.2132 10.8899 65.6665 12.7599 65.7698 14.8432L67.4098 15.3899C68.9532 15.9032 70.3098 16.3566 71.3798 16.8566C72.5398 17.3966 73.6032 18.0899 74.4165 19.2199C75.2298 20.3466 75.5532 21.5766 75.6998 22.8466C75.8332 24.0232 75.8332 25.4466 75.8332 27.0799V27.5599C75.8332 28.8999 75.8332 30.0832 75.7332 31.0732C75.6265 32.1432 75.3898 33.1866 74.7998 34.1932C74.2032 35.2032 73.4065 35.9166 72.5232 36.5299C71.7065 37.0966 70.6732 37.6732 69.4998 38.3232L60.6998 43.2132C58.8998 46.7499 56.4332 49.9032 53.0332 52.1799C50.1165 54.1366 46.6265 55.3766 42.4998 55.7299V62.4999H47.2665C48.6151 62.4999 49.9221 62.9673 50.9649 63.8224C52.0078 64.6774 52.7222 65.8675 52.9865 67.1899L53.7165 70.8332H59.9998C60.6629 70.8332 61.2988 71.0966 61.7676 71.5655C62.2364 72.0343 62.4998 72.6702 62.4998 73.3332C62.4998 73.9963 62.2364 74.6322 61.7676 75.101C61.2988 75.5698 60.6629 75.8332 59.9998 75.8332H19.9998C19.3368 75.8332 18.7009 75.5698 18.2321 75.101C17.7632 74.6322 17.4998 73.9963 17.4998 73.3332C17.4998 72.6702 17.7632 72.0343 18.2321 71.5655C18.7009 71.0966 19.3368 70.8332 19.9998 70.8332H26.2832L27.0132 67.1899C27.2775 65.8675 27.9919 64.6774 29.0347 63.8224C30.0776 62.9673 31.3846 62.4999 32.7332 62.4999H37.4998V55.7299C33.3732 55.3766 29.8832 54.1366 26.9665 52.1832C23.5698 49.9032 21.0998 46.7499 19.2998 43.2132L10.4998 38.3232C9.46433 37.7735 8.45543 37.175 7.4765 36.5299C6.55459 35.9309 5.77795 35.1338 5.20317 34.1966C4.66177 33.2384 4.34172 32.1712 4.2665 31.0732C4.1665 30.0832 4.1665 28.8999 4.1665 27.5599V27.0766C4.1665 25.4499 4.1665 24.0232 4.29984 22.8466C4.4465 21.5766 4.7665 20.3466 5.58317 19.2199C6.3965 18.0899 7.45984 17.3966 8.6165 16.8532C9.69317 16.3532 11.0465 15.9032 12.5898 15.3899L14.2298 14.8432C14.3332 12.7566 14.7865 10.8899 16.1898 9.15991C18.3798 6.46324 21.1765 5.99324 24.5465 5.43324L24.9932 5.35658ZM31.3832 70.8332H48.6165L48.0832 68.1699C48.0454 67.9811 47.9434 67.8111 47.7946 67.689C47.6457 67.5668 47.4591 67.5 47.2665 67.4999H32.7332C32.5406 67.5 32.354 67.5668 32.2051 67.689C32.0562 67.8111 31.9542 67.9811 31.9165 68.1699L31.3832 70.8332ZM14.3398 20.0766C14.5798 25.1432 15.1498 30.7432 16.5765 35.9766L13.0232 34.0066C11.7265 33.2832 10.9132 32.8299 10.3265 32.4232C9.7865 32.0466 9.60984 31.8232 9.51317 31.6566C9.41317 31.4899 9.3065 31.2299 9.23984 30.5766C9.16917 29.536 9.1447 28.4927 9.1665 27.4499V27.2066C9.1665 25.4099 9.16984 24.2732 9.2665 23.4132C9.35984 22.6199 9.5065 22.3232 9.63984 22.1432C9.76984 21.9599 10.0032 21.7266 10.7265 21.3899C11.5132 21.0232 12.5932 20.6599 14.2932 20.0899L14.3398 20.0766ZM63.4232 35.9766L66.9765 34.0066C68.2732 33.2832 69.0865 32.8299 69.6732 32.4232C70.2132 32.0466 70.3898 31.8232 70.4865 31.6566C70.5865 31.4899 70.6932 31.2299 70.7598 30.5766C70.8298 29.8632 70.8332 28.9332 70.8332 27.4499V27.2066C70.8332 25.4099 70.8298 24.2732 70.7332 23.4132C70.6398 22.6199 70.4932 22.3232 70.3598 22.1432C70.2298 21.9599 69.9965 21.7266 69.2732 21.3899C68.4865 21.0232 67.4065 20.6599 65.7065 20.0899L65.6598 20.0766C65.4232 25.1432 64.8465 30.7432 63.4232 35.9766ZM39.9998 9.16658C34.1998 9.16658 29.4432 9.67658 25.8265 10.2866C21.8032 10.9666 20.9598 11.2199 20.0732 12.3132C19.1998 13.3866 19.1165 14.4066 19.2932 18.9232C19.5932 26.4499 20.5865 34.5766 23.6598 40.7566C25.1798 43.8032 27.1665 46.2966 29.7532 48.0299C32.3198 49.7532 35.6365 50.8332 39.9998 50.8332C44.3665 50.8332 47.6798 49.7532 50.2498 48.0299C52.8365 46.2966 54.8198 43.8032 56.3365 40.7532C59.4132 34.5766 60.4065 26.4532 60.7032 18.9199C60.8865 14.4066 60.8032 13.3866 59.9298 12.3132C59.0432 11.2199 58.1965 10.9666 54.1732 10.2866C49.4881 9.52005 44.7472 9.14542 39.9998 9.16658Z" fill="black"/>
</g>
</g>
</svg>
