<svg width="80" height="80" viewBox="0 0 80 80" fill="none" xmlns="http://www.w3.org/2000/svg">
<g id="material-symbols:lab-research-outline-rounded">
<path id="Vector" d="M26.6668 73.3334C22.0557 73.3334 18.1246 71.7079 14.8735 68.4568C11.6224 65.2056 9.99795 61.2756 10.0002 56.6668V26.6668C8.16683 26.6668 6.59683 26.0134 5.29017 24.7068C3.9835 23.4001 3.33128 21.8312 3.3335 20.0001V13.3334C3.3335 11.5001 3.98684 9.93009 5.2935 8.62342C6.60017 7.31675 8.16906 6.66453 10.0002 6.66675H43.3335C45.1668 6.66675 46.7368 7.32009 48.0435 8.62675C49.3502 9.93342 50.0024 11.5023 50.0002 13.3334V20.0001C50.0002 21.8334 49.3468 23.4034 48.0402 24.7101C46.7335 26.0168 45.1646 26.669 43.3335 26.6668V36.7501C41.0002 38.2501 39.0135 40.1256 37.3735 42.3768C35.7335 44.6279 34.5813 47.169 33.9168 50.0001H30.0002C29.0557 50.0001 28.2635 49.6801 27.6235 49.0401C26.9835 48.4001 26.6646 47.609 26.6668 46.6668C26.6668 45.7223 26.9868 44.9301 27.6268 44.2901C28.2668 43.6501 29.0579 43.3312 30.0002 43.3334H36.6668V40.0001H30.0002C29.0557 40.0001 28.2635 39.6801 27.6235 39.0401C26.9835 38.4001 26.6646 37.609 26.6668 36.6668C26.6668 35.7223 26.9868 34.9301 27.6268 34.2901C28.2668 33.6501 29.0579 33.3312 30.0002 33.3334H36.6668V26.6668H16.6668V56.6668C16.6668 59.4445 17.6391 61.8056 19.5835 63.7501C21.5279 65.6945 23.8891 66.6668 26.6668 66.6668C28.3335 66.6668 29.8613 66.3056 31.2502 65.5834C32.6391 64.8612 33.8057 63.8612 34.7502 62.5834C35.1946 63.6945 35.6946 64.7501 36.2502 65.7501C36.8057 66.7501 37.4724 67.7223 38.2502 68.6668C36.7502 70.1112 35.0135 71.2501 33.0402 72.0834C31.0668 72.9168 28.9424 73.3334 26.6668 73.3334ZM33.9168 60.0001H30.0002C29.0557 60.0001 28.2635 59.6801 27.6235 59.0401C26.9835 58.4001 26.6646 57.609 26.6668 56.6668C26.6668 55.7223 26.9868 54.9301 27.6268 54.2901C28.2668 53.6501 29.0579 53.3312 30.0002 53.3334H33.4168C33.3057 54.4445 33.2913 55.5556 33.3735 56.6668C33.4557 57.7779 33.6368 58.889 33.9168 60.0001ZM10.0002 20.0001H43.3335V13.3334H10.0002V20.0001ZM55.0002 63.3334C57.3335 63.3334 59.3057 62.5279 60.9168 60.9168C62.5279 59.3056 63.3335 57.3334 63.3335 55.0001C63.3335 52.6668 62.5279 50.6945 60.9168 49.0834C59.3057 47.4723 57.3335 46.6668 55.0002 46.6668C52.6668 46.6668 50.6946 47.4723 49.0835 49.0834C47.4724 50.6945 46.6668 52.6668 46.6668 55.0001C46.6668 57.3334 47.4724 59.3056 49.0835 60.9168C50.6946 62.5279 52.6668 63.3334 55.0002 63.3334ZM55.0002 70.0001C50.8335 70.0001 47.2913 68.5412 44.3735 65.6234C41.4557 62.7056 39.9979 59.1645 40.0002 55.0001C40.0002 50.8334 41.4591 47.2912 44.3768 44.3734C47.2946 41.4556 50.8357 39.9979 55.0002 40.0001C59.1668 40.0001 62.7091 41.459 65.6268 44.3768C68.5446 47.2945 70.0024 50.8356 70.0002 55.0001C70.0002 56.4445 69.8057 57.8334 69.4168 59.1668C69.0279 60.5001 68.4446 61.7779 67.6668 63.0001L74.3335 69.6668C74.9446 70.2779 75.2502 71.0556 75.2502 72.0001C75.2502 72.9445 74.9446 73.7223 74.3335 74.3334C73.7224 74.9445 72.9446 75.2501 72.0002 75.2501C71.0557 75.2501 70.2779 74.9445 69.6668 74.3334L63.0002 67.6668C61.7779 68.4445 60.5002 69.0279 59.1668 69.4168C57.8335 69.8056 56.4446 70.0001 55.0002 70.0001Z" fill="black"/>
</g>
</svg>
